<svg width="399" height="620" viewBox="0 0 399 620" fill="none" xmlns="http://www.w3.org/2000/svg">
<path d="M293.791 260.5L261.791 248L134.791 195.5H125.291L121.791 198.5L120.291 202L115.291 209L107.291 218L105.791 220.5V223.5L106.291 225.5L92.2908 231L77.2908 238L62.7908 246L56.2908 250L48.2908 256L41.2908 262.5L36.2908 269.5L30.2908 280.5L26.2908 288L21.2908 302.5L18.7908 315L18.2908 324.5V332L19.2908 339L23.7908 351L21.2908 354.5L17.2908 363L13.2908 373L11.2908 384V397C11.3062 400.852 11.4863 403.039 12.2908 407L5.79078 413L1.29078 421.5L0.290785 427C-0.155069 430.37 -0.0340971 432.243 0.290785 435.5C0.773289 437.668 1.4611 438.536 2.79079 440V454.5C3.27512 457.878 3.57925 459.754 4.29078 463C6.26854 467.104 7.73813 469.151 10.7908 472.5C12.7668 474.183 13.9395 475.008 16.2908 476L16.7908 489C18.2806 492.88 19.4884 494.447 21.7908 497C25.2915 500.014 27.2644 501.214 30.7908 503L46.2908 510.5L65.7908 520L83.2908 526.5L79.2908 553C79.5328 555.215 79.8993 556.262 80.7908 558L66.2908 616C66.6696 618.1 67.2377 618.949 69.2908 619.5H330.291C333.15 618.349 333.995 617.355 334.291 615L328.791 553.5L330.291 536.5L339.291 534.5L355.291 527.5L373.291 514.5L383.791 504C386.295 501.373 387.588 499.826 388.291 496L385.791 481.5C392.641 477.545 394.388 473.864 397.791 467.5C398.183 463.956 398.081 462.153 397.791 459L376.291 409.5L326.791 294L316.791 277.5L305.791 267.5L293.791 260.5Z" fill="#081C15"/>
<path d="M26.7908 472C26.8188 476.042 28.8289 483.533 29.2908 484L32.7908 488L40.7908 492L56.7908 500L72.2908 507.5L89.2908 513L123.791 520.5L150.291 525L165.291 526.5C170.702 527.155 172.155 528.166 174.695 529.933L174.791 530L184.791 537.5L199.291 544.5L209.791 546.5H224.791C224.84 546.479 224.845 546.864 224.791 548.5C224.791 548.5 220.791 549.5 220.291 550.5C219.791 551.5 225.291 553.5 225.291 553.5H230.291C232.359 553.027 233.453 552.458 235.291 551C235.943 549.276 235.889 547.243 235.797 543.755L235.791 543.5L235.291 537C237.072 536.512 237.884 536.653 239.291 537C240.791 537.728 241.413 538.17 242.291 539L243.291 541.5C243.291 541.5 243.791 542.5 244.291 542.5C244.791 542.5 247.463 540.51 248.291 539L249.291 535V530.5L244.291 520C243.941 518.125 244.189 517.733 245.291 518C245.291 518 256.791 526 257.791 526C258.791 526 260.791 520.5 260.791 520.5C261.323 518.871 261.227 518.008 260.791 516.5L257.791 510.5C256.457 508.5 253.691 504.4 253.291 504C252.891 503.6 251.124 500.833 250.291 499.5C250.063 496.88 250.319 496.311 251.291 496.5L258.291 500C258.291 500 266.291 506.5 266.791 506.5C267.291 506.5 269.291 502 269.291 502C270.118 497.043 269.371 495.232 266.791 493L262.791 489L256.291 484.5L238.791 475C234.787 474.49 232.584 474.605 228.791 476L215.291 481.5L196.791 489H189.791L156.791 480L143.291 475L131.791 468.5L117.791 459L107.291 451.5L96.2908 445C91.7219 443.569 89.1348 442.803 83.7908 442.5C78.4668 442.06 75.5065 442.008 70.2908 442.5L57.7908 445L45.2908 450.5L31.2908 461C28.8983 464.773 27.6894 466.997 26.7908 472Z" fill="#1B4332"/>
<path d="M14.2908 432.5L16.2908 431C14.7385 436.772 13.9765 440.033 13.2908 446C13.3082 447.936 13.3832 449.027 13.7908 451C14.4311 454.096 15.0969 455.739 16.7908 458.5C17.3762 458.701 17.7046 458.695 18.2908 458.5C20.3456 453.978 21.9792 452.02 25.2908 449L36.2908 441.5L47.2908 436.5L56.2908 434L68.7908 432L79.7908 431L89.7908 432.5L107.291 438C108.793 435.874 109.36 434.557 109.791 432V423C108.188 419.575 106.884 418.314 104.291 416.5L94.7908 411L83.2908 407L69.2908 404.5H51.2908L40.7908 406L29.7908 410L19.7908 416.5L12.7908 426V429.5L14.2908 432.5Z" fill="#1B4332"/>
<path d="M128.291 337C128.321 343.762 126.895 358.045 125.291 360.5C121.96 350.983 120.13 345.626 115.291 337C113.593 333.956 112.466 332.329 110.291 329.5L103.291 324L104.291 329.5L115.291 366V378L112.791 388C112.279 389.211 111.678 389.084 110.291 390C106.878 384.948 104.598 382.756 97.7908 379C89.6669 376.133 85.1693 375.313 77.2908 375.5C85.3742 380.869 89.5361 384.158 96.2908 390.5L100.791 397L102.291 401L81.2908 395L68.2908 393.5H57.2908L42.2908 395L26.2908 399.5C25.153 397.913 24.7133 396.937 24.2908 395C24.0269 390.899 23.9331 388.601 24.2908 384.5C24.8802 378.794 25.5344 375.693 27.7908 370.5C30.9697 361.913 33.4805 357.516 40.2908 351C35.9948 345.258 33.9484 341.364 30.7908 333.5V325V317.5L33.7908 303.5L36.7908 294.5L42.7908 281.5L52.7908 269L58.7908 263.5C63.07 260.831 66.0678 260.063 72.7908 259.5C76.8487 259.693 79.1475 260.164 83.2908 261.5C89.6777 263.617 91.4654 264.841 95.7908 267C100.776 270.288 103.222 272.247 106.791 276L119.791 297L126.291 317.5L128.291 337Z" fill="#1B4332"/>
<path d="M111.791 238.5L84.7908 250C89.6076 251.564 92.2569 252.517 96.7908 254.5C103.132 258.48 106.483 260.796 112.291 265C114.135 266.68 114.993 267.67 116.291 269.5L113.791 270.5C117.516 274.057 119.279 276.018 122.291 279.5C125.972 285.445 127.615 288.712 130.291 294.5L135.791 310L138.291 323L139.291 334L138.791 348.5L137.791 360L136.791 367.5C141.134 362.051 143.549 358.978 147.291 353C150.433 347.747 151.87 344.785 154.291 339.5V359.5C153.672 362.557 153.278 364.236 152.291 367C150.861 371.997 149.651 374.651 146.791 379C145.456 382.127 144.323 383.638 141.791 386L147.291 399.5C149.93 404.933 151.702 407.886 155.291 413C158.97 417.802 160.856 419.742 164.291 423.5C169.617 428.385 172.977 430.572 179.291 434C186.994 438.142 191.593 440.132 200.791 442.5L211.291 445C217.571 446.123 221.182 446.455 227.791 446.5H241.291C236.569 444.11 234.458 442.233 231.791 437.5C235.156 434.858 236.833 433.234 239.291 430C242.103 425.787 243.5 423.316 245.291 418.5C246.983 413.541 247.58 410.629 247.791 405.5C248.54 395.42 248.629 389.738 247.791 379.5L247.291 368.5L245.791 359L243.291 347.5C242.74 352.875 241.892 355.945 239.291 361.5L231.291 373.5L221.791 381.5L209.791 389L208.791 376.5L205.291 360.5L200.791 347.5L196.791 325.5C196.749 317.059 196.747 312.332 197.291 304L199.791 292.5L200.791 286L183.791 282L170.291 276.5L155.791 268.5L139.291 256.5L124.791 245.5L111.791 238.5Z" fill="#1B4332"/>
<path d="M265.791 293.5C259.522 286.82 256.402 282.648 247.791 278.5C246.679 278.776 246.236 279.11 246.791 281L256.791 296L260.791 304L262.791 312L263.791 319C256.557 312.682 253.095 308.712 247.791 301C250.109 311.524 251.533 317.387 255.291 327.5L264.791 341.5L265.107 341.926C270.21 348.811 273.167 352.801 277.291 360C277.919 352.666 278.294 348.496 278.791 341.5C278.457 334.885 278.108 331.159 277.291 324.5C276.73 317.655 275.895 313.95 273.791 307.5C270.997 302.079 269.383 299.031 265.791 293.5Z" fill="#1B4332"/>
<path d="M211.791 300C215.639 288.18 218.109 284.629 222.791 281C223.462 282.284 223.432 283.409 223.291 285.5L221.791 295V304.5L222.291 314.5L225.291 324C227.026 320.764 227.821 318.922 228.291 315.5L229.791 304L231.291 296L234.791 309.5L236.291 318.5C236.455 326.075 236.267 330.246 235.291 337.5C234.123 341.698 233.316 343.976 231.791 348L223.791 361L219.291 366.5C216.463 356.594 214.966 351.024 212.791 341C211.678 335.018 211.008 331.456 209.791 325V309.5L211.791 300Z" fill="#1B4332"/>
<path d="M226.291 273L219.791 262.5C219.385 261.744 219.544 261.558 220.291 261.5H227.291C231.603 261.93 233.747 262.407 237.291 263.5C239.728 264.94 241.041 265.916 242.791 269.5C243.114 271.707 243.097 272.908 242.791 275C241.642 278.699 240.624 280.662 238.291 284C236.618 284.925 235.72 285.436 233.291 286.5C232.9 286.603 232.681 286.63 232.291 286.5C231.458 286.161 231.178 285.784 230.791 285L226.291 273Z" fill="#1B4332"/>
<path d="M169.791 235L133.791 209.5C132.497 210.916 130.089 214.665 129.791 215C129.525 215.299 123.624 221 120.791 224L133.791 236.5L144.291 244L157.791 253.5L165.291 257.5L182.291 266.5L192.791 269.5L169.291 250.5L190.291 260L201.791 263.5L215.291 267.5C214.732 264.225 213.546 262.59 209.791 260L191.291 250L169.791 235Z" fill="#1B4332"/>
<path d="M287.291 145.5C282.615 136.284 280.017 131.111 276.791 121.5L121.791 147C126.123 156.705 129.211 162.083 136.291 171.5C135.233 180.934 134.959 186.182 134.791 195.5L148.791 205L188.291 236.5L213.791 250L249.291 263.5L261.791 248.5L251.791 234.5H270.291C272.516 233.855 273.64 233.352 274.791 231.5H279.291C281.399 230.164 282.329 229.114 283.791 227L283.813 226.965C285.571 224.212 286.563 222.659 287.291 219C288.133 214.704 288.263 212.217 287.291 207.5C286.244 202.938 285.578 200.35 283.791 195.5C282.815 189.855 282.739 186.361 282.791 180C283.936 176.817 284.545 175.007 285.291 171.5C285.425 169.977 285.414 168.857 285.291 166.5C284.551 162.993 283.599 161.021 281.791 157.5C284.757 154.928 286.06 153.237 287.291 149.5C287.768 147.938 287.619 147.062 287.291 145.5Z" fill="#081C15"/>
<path d="M248.291 184.5V185.5C254.773 184.343 258.444 183.692 265.291 182.5H275.291L275.791 176.5C275.382 175.387 275.021 175.156 274.291 175H265.291C262.523 175.36 261.187 175.724 259.291 176.5L254.791 179.5L248.291 184.5Z" fill="#1B4332"/>
<path d="M125.291 37L120.791 83.5C106.731 88.854 99.2237 92.0531 86.2908 98L70.7908 107.5C66.992 110.174 65.0002 111.791 61.7908 115C59.6997 117.629 58.729 119.17 57.2908 122C56.6351 124.799 56.4642 126.349 57.2908 129C59.6235 132.065 61.1097 133.638 64.2908 136L74.7908 140.5L87.7908 144L103.791 146L121.791 147L276.791 121.5L306.791 112L328.291 100.5L339.291 93C342.747 89.5754 344.927 88.1577 347.791 83.5C348.87 80.1079 349.562 78.2145 347.791 74.5C346.73 72.6217 345.649 71.6515 343.291 70L330.791 65.5L315.791 62L300.291 60L285.291 59L268.791 58.5C262.746 40.2989 258.32 29.4115 246.791 8.5C245.827 6.43317 244.918 5.34638 242.791 3.5L242.753 3.47853C239.77 1.79439 238.086 0.843538 232.291 0H220.791C213.025 1.31154 208.732 2.05829 201.791 3.5L172.791 11C154.887 16.282 146.055 20.8053 130.791 29.5C127.955 32.237 126.83 33.9005 125.291 37Z" fill="#081C15"/>
<path d="M220.791 233L214.291 250C202.186 244.169 195.437 240.822 184.291 233L167.791 221L148.291 203.5L150.291 185.5C150.957 181 152.291 171.9 152.291 171.5V163.5C152.403 162.172 153.192 161.938 155.291 162L159.291 164.5H163.791L167.791 162C170.062 159.396 170.797 157.69 171.791 154.5C169.323 156.065 167.821 156.871 163.791 157.5C159.537 156.942 157.596 156.507 154.291 154.5C149.568 149.329 147.114 146.295 143.291 140.5C141.773 135.929 141.043 133.328 140.291 128.5L142.291 120.5C144.675 116.007 146.51 114.149 150.291 111.5C154.877 111.287 156.891 112.14 160.291 114C163.911 116.466 165.772 117.89 168.791 120.5L175.291 151L174.291 159.5V190.5C175.896 194.449 177.122 196.557 180.291 200L190.291 208L200.791 220L214.291 228L220.791 230C221.148 231.241 221.101 231.888 220.791 233Z" fill="#1B4332"/>
<path d="M211.291 93C207.86 94.4418 205.989 95.3138 202.791 97L202.291 99L200.791 101L194.791 107L189.291 114.5L188.291 118.5L187.791 124L192.791 144.5C193.775 148.145 194.5 150.128 196.291 153.5L203.291 159L208.791 163L216.791 170.5L224.791 176H230.791L232.291 175.5L236.291 171L240.791 167.5L248.791 163C252.216 161.355 253.738 160.368 255.791 158.5L251.791 154.5V149.5L254.791 145.5C255.794 145.061 256.341 145.093 257.291 145.5C257.741 146.086 257.638 146.414 257.291 147L255.791 149.5V152.5L259.791 155.5C260.906 152.698 262.31 151.491 267.291 150.5L275.291 152.5C277.278 151.101 278.3 150.254 279.791 148.5V144L277.791 141C274.457 133.89 272.49 129.923 270.791 122.5C269.926 118.661 269.666 116.478 269.791 112.5L276.791 107.5C277.003 106.021 277.198 105.221 276.791 103.5C275.55 100.417 275.084 98.718 272.791 95.5C270.677 94.1855 269.351 93.7767 266.791 93.5L257.791 93C252.153 92.336 248.988 91.9783 243.291 91.5H226.291L211.291 93Z" fill="#1B4332"/>
<path d="M232.291 122H225.291C225.072 120.39 226.72 119.419 234.791 117.5L245.291 116.5C241.26 113.908 238.761 112.986 233.791 112.5H223.291L214.791 114.5C220.272 109.859 223.25 107.221 229.791 103C232.05 102.7 233.251 102.711 235.291 103C244.372 104.796 250.223 106.331 261.291 109.5C262.622 110.366 263.3 110.981 264.291 112.5C264.339 113.32 264.344 113.679 264.291 114C262.796 116.451 261.781 117.707 259.291 119.5C255.742 120.607 253.738 121.112 250.291 123L245.291 127.5H243.791C241.677 125.45 240.525 124.277 237.291 123C235.747 122.338 234.715 122.078 232.291 122Z" fill="#081C15"/>
<path d="M261.791 53L267.291 54.5L268.791 58.5L264.791 59L255.291 59.5L230.791 61L216.791 63L202.291 65L193.791 66.5L182.291 68.5C171.652 70.7129 165.603 72.0618 154.791 74.5L142.291 77.5L161.291 70L179.791 64L194.791 59.5L214.291 56L235.291 52.5H254.791L261.791 53Z" fill="#1B4332"/>
</svg>
