<svg width="262" height="387" viewBox="0 0 262 387" fill="none" xmlns="http://www.w3.org/2000/svg">
<path d="M310.877 172.6L304.197 138.004C299.597 131.492 292.761 128.854 277.189 124.952C256.104 120.575 244.81 119.183 224.545 116.459C193.172 112.486 175.994 111.417 146.263 109.568L144.592 109.464L124.102 55.1964C125.625 54.5146 126.298 53.925 127.245 52.5561C127.796 50.3874 127.878 49.0278 127.751 46.7698C126.209 42.5386 125.098 40.3457 122.815 36.6203C120.633 32.7193 118.924 30.8433 114.82 28.1468C111.441 27.7689 109.541 27.6316 106.151 27.3883L74.2915 3.22223L50.617 18.6427L89.2193 43.3987L88.9662 46.2918L100.139 62.8175L103.029 63.0703L119.208 111.13C98.1539 111.006 92.1259 113.326 84.5648 118.789C78.9497 131.883 77.4848 139.049 72.9421 151.784C54.8672 176.126 45.9484 190.915 32.1042 219.149C22.6284 240.561 20.3489 251.861 14.7721 273.023C10.2282 293.809 11.6377 304.414 13.2746 323.424C15.4695 351.445 23.6305 361.488 35.3534 381.718C43.6098 395.434 53.9077 400.544 67.6697 411.754C86.6004 424.509 98.9043 429.249 122.817 436.014C141.142 440.451 153.955 441.523 178.435 443.795C199.729 444.771 212.348 443.283 235.066 440.004C251.355 435.895 260.583 433.29 278.091 425.305C295.979 415.312 305.099 408.308 318.865 391.945C324.989 385.151 327.567 380.574 331.318 371.656C338.496 359.149 340.806 349.975 344.41 332.959C345.482 318.645 345.486 310.555 344.726 296.06C343.758 285.956 343.367 280.071 343.236 268.72L342.815 266.808C339.561 251.994 337.611 243.121 333.377 226.072C327.171 209.484 325.517 203.22 310.877 172.6Z" fill="#081C15"/>
<path d="M273.997 140.249C281.215 139.792 284.396 139.112 289.747 137.74C282.026 134.469 277.525 132.778 268.013 130.98C256.05 128.352 249.353 127.134 237.441 125.39C206.783 121.757 190.263 120.454 161.34 118.732C146.29 117.953 138.034 117.923 123.519 118.338C114.542 118.137 109.829 118.837 101.904 121.306C110.536 125.39 115.996 127.051 126.444 129.283C145.116 132.094 156.304 133.487 177.33 135.679C200.105 138.307 213.558 138.864 238.102 140.024C251.885 140.348 259.653 140.491 273.997 140.249Z" fill="#1B4332"/>
<path d="M124.523 50.3744C124.748 49.3933 124.265 47.2017 123.898 46.4326C120.848 40.7526 119.248 37.8796 114.482 32.0043C109.111 30.1815 107.37 31.1497 106.354 36.1519C108.738 42.3829 110.938 45.7299 115.685 51.5447L118.406 53.7263C120.989 52.8737 122.4 52.3088 124.523 50.3744Z" fill="#1B4332"/>
<path d="M309.671 174.613L296.558 180.268C285.88 181.811 280.703 182.105 271.09 182.899C259.88 183.669 253.483 183.699 241.938 183.264L196.579 180.267L146.487 175.885L121.61 171.765L91.1222 165.21L81.7424 161.474L69.8945 152.664" stroke="#1B4332" stroke-width="15"/>
</svg>
